<?xml version="1.0" ?><!DOCTYPE svg  PUBLIC '-//W3C//DTD SVG 1.1//EN'  'http://www.w3.org/Graphics/SVG/1.1/DTD/svg11.dtd'><svg enable-background="new 0 0 500 500" height="500px" id="Layer_1" version="1.1" viewBox="0 0 500 500" width="500px" xml:space="preserve" xmlns="http://www.w3.org/2000/svg" xmlns:xlink="http://www.w3.org/1999/xlink"><g><path clip-rule="evenodd" d="   M51.915,342.866h396.169V120.794c0-7.3-5.974-13.264-13.285-13.264H65.189c-7.301,0-13.274,5.963-13.274,13.264V342.866z" fill="none" fill-rule="evenodd" stroke="#3eaf7c" stroke-linecap="round" stroke-linejoin="round" stroke-miterlimit="2.6131" stroke-width="10"/><path clip-rule="evenodd" d="   M259.483,144.506h137.218c1.769,0,3.214,1.445,3.214,3.213v64.55c0,1.768-1.445,3.213-3.214,3.213H259.483   c-1.779,0-3.224-1.445-3.224-3.213v-64.55C256.26,145.952,257.704,144.506,259.483,144.506z" fill="none" fill-rule="evenodd" stroke="#3eaf7c" stroke-linecap="round" stroke-linejoin="round" stroke-miterlimit="2.6131" stroke-width="10"/><polyline clip-rule="evenodd" fill="none" fill-rule="evenodd" points="   25,342.985 475,342.985 475,377.61  " stroke="#3eaf7c" stroke-linecap="round" stroke-linejoin="round" stroke-miterlimit="2.6131" stroke-width="10"/><path clip-rule="evenodd" d="   M475,377.61c0,8.185-6.697,14.859-14.85,14.859" fill="none" fill-rule="evenodd" stroke="#3eaf7c" stroke-linecap="round" stroke-linejoin="round" stroke-miterlimit="2.6131" stroke-width="10"/><line clip-rule="evenodd" fill="none" fill-rule="evenodd" stroke="#3eaf7c" stroke-linecap="round" stroke-linejoin="round" stroke-miterlimit="2.6131" stroke-width="10" x1="460.15" x2="36.894" y1="392.47" y2="392.47"/><path clip-rule="evenodd" d="   M36.894,392.47c-6.545,0-11.894-5.349-11.894-11.895" fill="none" fill-rule="evenodd" stroke="#3eaf7c" stroke-linecap="round" stroke-linejoin="round" stroke-miterlimit="2.6131" stroke-width="10"/><line clip-rule="evenodd" fill="none" fill-rule="evenodd" stroke="#3eaf7c" stroke-linecap="round" stroke-linejoin="round" stroke-miterlimit="2.6131" stroke-width="10" x1="25" x2="25" y1="380.575" y2="342.985"/><line clip-rule="evenodd" fill="none" fill-rule="evenodd" stroke="#3eaf7c" stroke-linecap="round" stroke-linejoin="round" stroke-miterlimit="2.6131" stroke-width="10" x1="46.847" x2="192.681" y1="367.722" y2="367.722"/><path clip-rule="evenodd" d="   M402.233,370.871c1.736,0,3.138-1.424,3.138-3.149c0-1.747-1.401-3.138-3.138-3.138s-3.148,1.391-3.148,3.138   C399.085,369.447,400.497,370.871,402.233,370.871" fill="none" fill-rule="evenodd" stroke="#3eaf7c" stroke-linecap="round" stroke-linejoin="round" stroke-miterlimit="2.6131" stroke-width="10"/><path clip-rule="evenodd" d="   M425.806,370.871c1.736,0,3.149-1.424,3.149-3.149c0-1.747-1.413-3.138-3.149-3.138c-1.747,0-3.138,1.391-3.138,3.138   C422.668,369.447,424.059,370.871,425.806,370.871" fill="none" fill-rule="evenodd" stroke="#3eaf7c" stroke-linecap="round" stroke-linejoin="round" stroke-miterlimit="2.6131" stroke-width="10"/><path clip-rule="evenodd" d="   M447.416,370.871c1.736,0,3.148-1.424,3.148-3.149c0-1.747-1.412-3.138-3.148-3.138c-1.726,0-3.139,1.391-3.139,3.138   C444.277,369.447,445.69,370.871,447.416,370.871" fill="none" fill-rule="evenodd" stroke="#3eaf7c" stroke-linecap="round" stroke-linejoin="round" stroke-miterlimit="2.6131" stroke-width="10"/><line clip-rule="evenodd" fill="none" fill-rule="evenodd" stroke="#3eaf7c" stroke-linecap="round" stroke-linejoin="round" stroke-miterlimit="2.6131" stroke-width="10" x1="253.865" x2="399.915" y1="243.002" y2="243.002"/><g><line clip-rule="evenodd" fill="none" fill-rule="evenodd" stroke="#3eaf7c" stroke-linecap="round" stroke-linejoin="round" stroke-miterlimit="2.6131" stroke-width="10" x1="401.554" x2="200.132" y1="267.76" y2="267.76"/><line clip-rule="evenodd" fill="none" fill-rule="evenodd" stroke="#3eaf7c" stroke-linecap="round" stroke-linejoin="round" stroke-miterlimit="2.6131" stroke-width="10" x1="179.515" x2="91.684" y1="267.76" y2="267.76"/></g><g><line clip-rule="evenodd" fill="none" fill-rule="evenodd" stroke="#3eaf7c" stroke-linecap="round" stroke-linejoin="round" stroke-miterlimit="2.6131" stroke-width="10" x1="91.684" x2="215.239" y1="292.519" y2="292.519"/><line clip-rule="evenodd" fill="none" fill-rule="evenodd" stroke="#3eaf7c" stroke-linecap="round" stroke-linejoin="round" stroke-miterlimit="2.6131" stroke-width="10" x1="235.286" x2="401.554" y1="292.519" y2="292.519"/></g><line clip-rule="evenodd" fill="none" fill-rule="evenodd" stroke="#3eaf7c" stroke-linecap="round" stroke-linejoin="round" stroke-miterlimit="2.6131" stroke-width="10" x1="91.684" x2="401.554" y1="317.277" y2="317.277"/><g><polyline clip-rule="evenodd" fill="none" fill-rule="evenodd" points="    124.218,158.514 94.003,189.829 124.843,221.468   " stroke="#3eaf7c" stroke-linecap="round" stroke-linejoin="round" stroke-miterlimit="2.6131" stroke-width="10"/><polyline clip-rule="evenodd" fill="none" fill-rule="evenodd" points="    185.747,158.514 215.962,189.829 185.122,221.468   " stroke="#3eaf7c" stroke-linecap="round" stroke-linejoin="round" stroke-miterlimit="2.6131" stroke-width="10"/><line clip-rule="evenodd" fill="none" fill-rule="evenodd" stroke="#3eaf7c" stroke-linecap="round" stroke-linejoin="round" stroke-miterlimit="2.6131" stroke-width="10" x1="173.195" x2="139.67" y1="144.506" y2="235.464"/></g></g></svg>